<svg class="icon" viewBox="0 0 1024 1024" version="1.1" xmlns="http://www.w3.org/2000/svg" p-id="4722"
     width="16" height="16">
    <path d="M503 89c210.973 0 382 170.995 382 381.928S776.771 816.721 504.15 984C230.845 818.732 121 681.861 121 470.928S292.027 89 503 89z m0 59.82c-177.929 0-322.169 144.213-322.169 322.108 0 173.21 82.611 290.781 316.145 438.327l6.954 4.371 7.037-4.48c230.836-147.763 312.481-262.733 314.175-432.772l0.027-5.446c0-177.895-144.24-322.108-322.169-322.108z m0 138.046c92.777 0 167.988 75.197 167.988 167.957 0 92.76-75.21 167.956-167.988 167.956-92.777 0-167.988-75.197-167.988-167.956 0-92.76 75.21-167.957 167.988-167.957z m0 59.82c-59.733 0-108.157 48.415-108.157 108.137S443.267 562.959 503 562.959s108.157-48.414 108.157-108.136c0-59.722-48.424-108.137-108.157-108.137z"
          fill="#e6e6e6"></path>
</svg>